<svg xmlns="http://www.w3.org/2000/svg" xmlns:xlink="http://www.w3.org/1999/xlink" version="1.1" baseProfile="basic"
	x="0px" y="0px" viewBox="0 0 100 100" xml:space="preserve">
	<style type="text/css">
		.st0 {
			fill: #F43F5E;
		}
	</style>
	<polygon class="st0"
		points="83.75,12.5 61.25,12.5 61.25,20 53.75,20 53.75,27.5 46.25,27.5 46.25,20 38.75,20 38.75,12.5 16.25,12.5 16.25,20   8.75,20 8.75,50 16.25,50 16.25,57.5 23.75,57.5 23.75,65 31.25,65 31.25,72.5 38.75,72.5 38.75,80 46.25,80 46.25,87.5 53.75,87.5   53.75,80 61.25,80 61.25,72.5 68.75,72.5 68.75,65 76.25,65 76.25,57.5 83.75,57.5 83.75,50 91.25,50 91.25,20 83.75,20 " />
	<text x="0" y="115" fill="#000000" font-size="5px" font-weight="bold"
		font-family="'Helvetica Neue', Helvetica, Arial-Unicode, Arial, Sans-serif">Created by Bohdan Burmich</text>
	<text x="0" y="120" fill="#000000" font-size="5px" font-weight="bold"
		font-family="'Helvetica Neue', Helvetica, Arial-Unicode, Arial, Sans-serif">from the Noun Project</text>
</svg>